<?xml version="1.0" encoding="UTF-8"?>
<svg id="a" data-name="Layer 1" xmlns="http://www.w3.org/2000/svg" viewBox="0 0 916.77 891.85">
  <defs>
    <style>
      .b {
        fill: #fff;
      }
    </style>
  </defs>
  <path d="M528.12,874.06c-18.62,1.01-32.39-9.75-41.42-25.08-17.14-29.09-9.78-69.25,11.91-93.93,10.03-11.42,25.68-22.71,40.51-26l-5.01-11.99c-36.36,11.1-62.99,45.18-67.86,82.63-1.82,13.98-.9,20.77,3.85,33.89,8.45,23.33,27.36,43.06,53.03,45.47.19-.1-2.28-2.7.5-2.01,4.67,1.16,8.39,5.86,14.23,6.77,5.58.87,11.55-.29,17.1.46,1.38.19,2.75-.23,3.16,1.77-16.54,2.66-34.86,4.29-51.22-.27-23.74-6.62-40.49-28.84-49.28-50.73-7.65,20.11-19.61,37.11-39.48,46.53-7.41,3.51-20.43,7.35-28.52,7.48-3.77.06-28.26-2.19-30.78-3.21-.75-.31-1.23-.62-1.7-1.28,1.57-1.07,2.16-2.91,3.34-4.2.39-.42,1.93-.1,2.36-.51.74-.73.98-4.47,2.28-5.77-2.58-.03-4.26,2.13-6.74,2.75-33.61,8.38-84.47-12.25-115.62-25.9-44.89-19.67-108.01-66.09-138.61-104.39-15.02-18.79-24.44-40.73-37.45-60.55-37.23-56.72-62.32-130.87-46.09-198.92,3.87-16.23,11.51-31.05,17.54-46.48-.1-.75-2.27-.49-3.49-1.53-7.9-6.74-17.84-63.35-18.53-75.5-3.39-58.94,25.07-141.4,64.48-185.5,14.21-15.91,31.02-26.67,48.51-38.49l-2.91-.55c-.96-6.78,3.38-13.87,6.75-19.61,33.6-57.21,145.27-135.92,209.09-85.75,45.57,35.83,27.97,127.8-37.14,114.14-16.04-3.37-30.28-18.67-24.27-35.71,4.07-11.54,20.33-17.73,21.52-1.03,12.16-.11,10.26-19.11,1.25-21.8-2.44-.73-14.36,1.32-17.26,2.34-13.15,4.62-27.75,24.77-30.04,38.47-3.89-1.56-3.03-5.51-3-9-4.14,4.21-5.69,4.33-11.05,1.56-9.58-4.97,1.9-10.32,5.06-15.55-12.31.87-16.91,16.38-31.1,10.4-1.47-2.82.35-5.69,2.1-7.91,6.38-8.08,32.7-18.87,43-22s21.53-5.59,32-5.51c-5.24-6.38-16.97-4.1-24.2-2.69-11.18,2.17-19.14,7.6-29.1,11.91s-15.95,3.99-25.24,12.74c-7.19,6.78-11.35,19.87-23.36,12.95-.45-.63-.11-2.3.1-3.17.73-2.94,15.02-16.94,18.27-19.76,20.92-18.13,63.1-38.41,90.2-25.15,14.63,7.16,28.44,27.76,18.16,43.51-3.82,5.86-15.56,9.96-21.82,7.15-2.59-1.16-1.97-4.96-5-4.48-3.11,13.02,14.21,23.08,25.49,23.07,41.73-.02,49.85-57.39,27.48-85.55-45.28-56.99-137.64-1.76-175.49,38.46-14.04,14.92-22.9,32.38-37.48,46.52,3.53.79,24.65-8.42,26.01-9.99s1.1-6.73,2.2-9.8c3.31-9.25,38.02-37.93,47.48-44.52,25.09-17.49,62.57-35.72,93.71-31.09,30.45,4.53,58.21,32.64,44.78,64.58-6.41,15.24-32.84,32.65-46.18,17.33,30.98,2.27,54.43-23.98,36.82-53.33-13.56-22.61-45.34-26.2-68.62-19.98-33.73,9.01-62.19,31.51-85.71,56.29-3.37,3.55-5.39,8.14-9.46,11.54-3.1,2.59-7.32,3.77-10.02,6.98,9.47.41,20.4-4.41,29.54-4.54,42.19-.58,86.25,17.55,103.92,58.07,15.7,36,3.23,75.9-32.42,93.51-15.94,7.88-43.02,11.17-54.48-5.61-5.09-7.45-5.59-25.15,3.69-29.18,7.51-3.26,6.71,3.24,9.73,4.74,8.99,4.45,13.21-12.92,10.05-15.09-.59-.4-12.68-.37-14.28-.15-14.34,1.99-34.1,28.18-37.31,41.69-4.88,20.58,1.79,45.53,14.53,62.05,20.05-28.46,54.98-48.19,89.64-52.88,71.63-9.68,135.67,55.71,109.4,127.4-10.49,28.62-41.29,44.07-70.81,35.78-20.32-5.71-36.63-27.32-27.99-48.59,6.17-15.18,28.22-22.95,28.8-.71,9.99-5.18,9.22-28.04-2.57-29.94-12.55-2.02-25.83,5.1-32.24,15.64-9.27,15.22-7.34,31.07-2.2,47.29-1.36,1.03-8.35-4.75-9.49-6-7.53-8.25-6.2-19.72-5.52-29.99-4.29,2.82-5.88,9.24-7,14-14.22-9.18-8.68-16.94-.4-27.91,11.64-15.43,25.68-20.31,44.41-23.1,2.87-3.68-18-1.19-20.2-.69-19.51,4.47-34.14,18.66-41.81,36.7-.78.57-9.31-6.26-10.08-7.48-1.78-2.82,4.69-12.61,6.68-15.43,12.3-17.4,37.46-29.38,58.81-26.98,29.54,3.31,56.44,39.52,27.14,61.93l-10.53,3.96c9.3,1.85,25.44-3.18,31.65-10.34,1.06-1.23,10.04-20.65,10.26-22.24,4.31-30.5-24.63-58.68-53.42-62.4-34.15-4.41-67.07,11.74-86.71,39.27-2.21,3.1-6.57,12.1-8.28,13.73-2.89,2.75-9-3.32-11.52-5.5-20.19-17.43-27.52-42.54-30.11-67.89-.1-1.02-.4-4.7-1.87-4.61-7.64,29.12,6.74,54.2,25,75.48-15.49-1.72-23.03-4.72-30.53-18.47-12.32-22.58-13.42-49.49-2.94-72.99,11.52-25.84,38.08-48.78,67.46-48.05-2.66-3.98-9.14-3.28-13.37-2.87-53.95,5.27-80.31,73.92-60.8,120.56,1.21,2.89,10.51,18.02,9.18,19.31-11.39.34-15.77,1.66-21.55-8.94-7.77-14.26-12.51-42.46-11.43-58.54,2.79-41.72,37.41-81.99,79.99-85.52-6.99-5.79-18.53-2.39-26.26.25-26.44,9.01-49.89,37.22-57.24,63.76-8.79,31.77-.29,65.91,13.66,94.83,13.97-.71,28.15-1.7,42.06.45s34.39,11.32,46.1,19.9c3.39,2.48,16.92,13.58,18.73,16.29,1.68,2.52-2.19,8.47-3.84,11.27-.35.6-.03,1.96-1.7,1.27-2.22-.92-13.09-13.49-16.61-16.39-59.24-48.74-139.57-9.97-174.7,48.09-31.24,51.63-29.08,107.3-10.46,163.07,8.54,25.56,23.52,45.52,30.82,71.18l1.44,9.04c1.13-13.48-1.76-27.06-.98-40.49,3.32-56.98,44.12-108.26,98.03-125.97,48.71-16,112.52,16.17,106.95,72.95-2.37,24.23-26.27,43.55-50.52,40.54-18.46-2.29-28.64-32.73-3.48-30.03-2.18-15.63-20.42-.89-26.02,5.48-17.41,19.79-19.7,46.57-9.46,70.51,4.16,9.72,13.08,16.04,9.44,27.98-8.5,1.49-14.72-11.71-18.13-18.29-9.69-18.74-13.7-37.6-9.17-58.51,4.05-18.69,16.97-37.17,36.34-41.65-6.96-5.88-21.93,4.54-26.97,10.02-25.6,27.87-19.21,75.08.56,104.38,4.69,6.95,11.92,11.43,12.42,20.63.2,3.71.1,6.22-4.29,5.3s-13.19-13.02-16.12-16.94c-23.31-31.11-31.65-68.65-13.98-104.78,8.65-17.7,19.51-31.39,40.98-31.02,17.47.31,40.11,14.39,30.44,34.44-2.7,5.6-5.21,1.75-9.04,4.97,3.97,9.87,17.04,6.95,24.98,3.97,34.68-13.01,21.97-63.38-3.65-80.33-66.49-43.99-153.43,32.59-158.38,101.3-3.53,48.99,14.71,86.09,47.52,120.55,3.16,3.31,7.19,8.33,11.52,9.48-13.58-20.8-30.85-38.56-39.77-62.22-9.49-25.15-15.63-70.95-2.61-95.14,1.99-3.7,4.19-9.04,9.37-8.12-1.5,12.3-7.02,23.98-7.98,36.51-4.23,55.18,47.2,142.82,103.94,154.04,1.35.27,4.75,1.53,4.02-1.02-3.11-10.86-9.91-8.12-17.65-11.36-19.09-7.98-42.58-33.94-53.96-51.04-22.93-34.46-40.07-86.43-17.38-124.65l-1.98-.47c-2.88-16.17,6.16-27.95,16.98-38.52,26.06-25.46,54.86-39.14,91.27-25.25,8.87,3.38,19.89,8.43,18.73,19.76-9.79-9.26-20.19-15.55-33.76-17.73-36.51-5.84-61.87,15.09-81.59,42.87-2.71,3.82-6.79,8.85-6.14,13.86,1.42-.95,2.24-5.27,4.49-3.51-3.22,17.85-7.78,35.68-7.03,54.06,1.47,36.02,24.36,78.23,51.52,101.48,8.31,7.12,18.48,11.89,26.04,19.97,2.1.42,1.62-1,1.49-2.48-.4-4.46-3.34-7.93-3.92-12.09-.95-6.91-1.02-20.34-1.13-27.87-1.08-68.97,82.68-127.91,145.72-98.72,26.22,12.14,45.75,42.95,41.32,72.17,29.73,6.61,56.43,29.96,68.86,57.65,3.43,7.64,4.73,15.62,7.64,23.37,10.31-38.46,36.21-68.73,75.04-79.97-1.31-33.38,17.15-60.62,47.1-73.9,38.06-16.88,84.9-.95,111.33,29.39,20.83,23.91,34.05,59.09,32,90.85-.41,6.27-5.47,9.47-4.97,19.14.06,1.13-.65,2.75.99,2.47,5.98-9.67,17.48-15.72,26.03-23.48,39.34-35.71,54.84-78.09,46.85-130.88-1.84-12.19-4.74-31.96-11.45-41.55-21.58-30.81-70.7-46.85-103.34-24.52-3.79,2.59-8.95,10.43-13.06,6.94,16.66-22.63,45.04-26.95,71.22-21.23,29.77,6.5,51.43,30.9,68.75,54.25,52.48,70.74-8.76,177.14-80.61,207.33-6.23,2.62-18.8,3.67-21.68,5.23-4.3,2.33-11.64,12.06-16.21,15.88-7.84,6.57-17.96,10.35-24.47,18.02,6.66.17,14-3.54,20.02-6.47,15.01-7.3,30.23-18.49,44.93-27.07,69.42-40.47,122.81-103.31,101.56-189.47-15.61-63.27-101.37-121.26-159.84-74.82-21.9,17.4-29.46,61.92-.35,76.01,7.51,3.63,23.38,7.81,27.67-1.69-19.25,1.14-16.1-22.95-5.34-32.3,17.11-14.86,44.67-9.96,58.35,7.3,29.88,37.72,22.21,90.05-8.03,124.97-3.04,3.51-9.66,11.64-14.46,10.58-6.39-7.14,10.27-23.78,14.29-30.75,19.3-33.49,22.2-90.81-19.45-108.16-1.7-.71-15.4-5.72-15.33-1.65,4.21,3.92,9.89,3.79,15.29,6.69,23.06,12.4,30.99,44.88,26.42,69.03-1.42,7.48-16.32,45.74-25.13,43.7-7.59-8.84-1.79-11.79,1.92-18.91,15.92-30.6,15.55-71.06-18.83-88.2-4.66-2.33-12.66-6.85-14.44.94-2.08,9.09,4.85,3.05,7.17,3.22,3.37.24,9.3,8.87,9.57,11.56,1.36,13.62-17.38,20.44-28.37,19.36-36.4-3.6-48.99-44.48-35.78-74.56,23.24-52.92,96.12-53.87,138.5-24.16,38.35,26.89,60.96,70.56,62.66,117.35,1.33,36.71-5.05,52.22-25.17,81.8-42.87,63.04-118.08,106-187.55,133.45-23.51,9.29-50.73,11.49-75.82,10.29-2.72-.13-10.08-3.55-11.94.96h-2.01s-.99-2.02-.99-2.02l-2.5,2v-3.02c-3.07,1.74-3.68-.9-4.98-1.32-2.26-.72-2.85-.67-5.03-1.67.99-.05,2.01.05,3-.01-3.67-7.43-12.67-9.55-18.39-15.1-8.47-8.21-15.3-24.82-16.49-36.51-3.51-34.67,19.34-69.46,53.88-76.39-4.97-5.96-7.32-11.91-15.68-8.16-37.07,16.64-55.33,57.07-43.84,96.19,6.23,21.21,18.17,31.16,37.52,39.98ZM217.13,252.06c-1.46,7.74,10.29,14.03,16.58,14.91,20.55,2.85,47.55-16.93,53.67-36.15,14.01-43.96-19.22-82.97-60.05-94.47-47.02-13.25-104.42,12.64-136.24,47.19-35.07,38.08-55.55,93.39-62.71,144.29-5.18,36.85,4.49,70.68,15.74,105.23l9.99-12.99c-1.99.14-3.2-.61-4.57-1.94-8.05-7.81-14.92-56.88-15.48-69.53-.58-13.27.59-26.53,3.06-39.53l2.72,8.76c.24,31.27,12.44,59.75,18.82,89.18.44,2.02.58,4,.46,6.05,6-4.91,11.86-9.83,15.98-16.51-3.5-1.93-4.61,2.68-6.51,4.51-2.5.62-4.8-5.78-5.5-7.48-14.44-34.74-18.65-81.52-8.9-117.94,19.28-72.06,89.08-142.87,168.96-127.11,5.21,1.03,36.21,8.56,34.96,15.02-1.27,1.96-5.19.66-7.22.24-13.76-2.88-26.3-8.59-41.29-9.71-52.76-3.92-102.49,34.96-126.66,79.32-26.7,49.03-28.53,85.43-12.33,138.66,2.36,7.74,6.71,14.91,7.51,23,12.66-8.45,25.56-17.91,39.73-23.76,6.56-2.71,14.45-3.62,20.26-7.74-4.2-1.51-9.48.84-13.39-1.6-6.23-3.89-11.47-29.94-12.48-37.52l-2.14-32.37-3.88,12.61c-1.72,22.32,1.8,43.06,10.89,63.38l-11.51,3.72c-6.19-.46-13.06-35.17-13.52-41.17-4.54-58.68,47.52-152.9,115.28-140.28,24.72,4.6,50.18,29.64,32.2,54.68-5.41,7.53-13.61,11.84-22.43,7.07ZM314.12,413.07c14.49,6.81,23.78,9.02,38.99,2.48,13.19-5.67,30.49-23.81,32.91-38.09,6.16-36.42-19.46-69.59-51.91-82.88-46.62-19.1-103.95,5.56-133.53,43.47-.51,1.1,5.04,10.58,8.01,10.07.5-.09,4.81-6.76,6.02-8.06,26.47-28.54,67.78-47.58,106.77-34.74,11.96,3.94,27.11,13.12,34.57,23.43,6.35,8.78,7.88,20.82,14.67,29.31l2.49-1.98c.23,7,.08,13.99-1.69,20.8-1.95,7.52-10.59,21.57-16.98,26.02-16.16,11.25-40.07,12.35-44.81-10.81-8.99,10.63-4.54,25.22,6,32.99,26.21,19.34,69.64-2.95,70-34.99-3.16,3.83-4.41,8.81-7.09,12.91-13.44,20.56-47.69,34.78-64.41,10.1ZM706.13,796.05c15.9-1.83,30.45-12.02,42.91-21.58,29.48-22.65,55.15-60.66,62.62-97.38,5.78-28.42,1.35-58.82-15.04-83.03-.43,14.48,5.67,29.11,7.38,43.62,6.38,54.01-21.57,104.36-65.16,134.6-4.23,2.93-10.83,7.72-15.35,9.65-7.97,3.41-10.19.01-15.17,8.83-.54.96-2.88,4.59-2.2,5.29ZM313.13,733.06c4.06,18.35,28.21,16.56,40.47,6.97,24.4-19.08,20.63-64.14-.95-84-43.11-39.66-110.01-12.73-135.69,33.35-22.08,39.62-12.76,92.03,17.66,124.68,3.64,3.91,12.34,12.47,17.5,11.5-7.8-13.08-19.62-22.51-26.51-36.49-11.78-23.88-11.4-63.31-.36-87.4,19.72-43.01,70.96-68.7,114.55-42.79,7.32,4.35,16.39,10.89,15.83,20.17-11.39-11.54-21.67-20.93-38.28-23.72-65.03-10.92-106.86,60.04-86.97,116.97,9.49,27.17,31.35,51.62,59.21,59.79,10.64,3.12,28.54,7.54,37.53-.02-24.1-.69-54.32-9.03-69.83-28.68-26.2-33.2-29.94-74.3-4.58-109.24,17.77-24.49,52.91-36.35,80.77-21.95,25.12,12.99,38.12,55.58,5.06,66.77l-8.41-.9c28.99-9.04,25.61-43.44,2.9-58.42-29.69-19.58-65.08-.31-78.76,29.05-15.49,33.22-1.72,81.76,29.94,100.78,15.18,9.12,30.94,11.73,47.46,17.38,4.8.4,7.9-3.16,10.46-6.79-4.44,1.6-7.79.7-12.2-.31-35.84-8.18-67.4-27.95-74.54-66.46-6.55-35.34,18.88-78.93,58.97-65.97,17.8,5.76,31.1,26.94,16.29,42.75-2.55,2.73-7.44,5.69-11.21,5.7-2.88.01-3.65-2.81-6.3-2.72ZM555.12,815.05c2.73,14.02,16.97,27.05,29.78,32.74,24.45,10.86,42.48-1.01,66.51-5.86,40.57-34.1,70.48-77.16,54.23-132.88-16.85-57.77-96.48-100.48-144.04-51.02-21.23,22.08-25.76,69.5,5.21,84.85,12.37,6.13,35,7.21,35.31-10.81-2.87-.63-1.84,2.19-4.21,3.27-11.6,5.27-19.33-12.46-18.8-21.73.7-12.26,14.42-24.61,25.96-27.09,29.89-6.42,54.9,21.86,56.09,50.01,1.47,34.92-21.11,61.92-51.68,75.4-10.55,4.65-23.94,8.96-35.36,7.15,4.64,11.82,19.83,5.43,28.96,2.45,34.44-11.24,62.51-36.96,65.03-74.98,2.13-32.23-19.22-63.22-50-72.98-20.4-6.47-47.03,8.36-51.54,29.44-3.95,18.41,3.44,27.05,19.55,34.56-12.21,6.06-26.4-10.09-27.91-21.09-4.32-31.47,29.14-55.08,58.33-50.33,81.6,13.27,82.98,134.21,6.84,158.68l-33.24,8.74c.26,5.81,27.73.73,32.26-.72,43.63-13.92,70.46-56.83,66.7-102.27-3.52-42.58-47.41-85.9-92.02-75.05-9.18,2.23-28.98,12.83-34.69,20.32-1.26,1.65-1.7,2.41-1.25-.25.94-5.57,11.89-15.29,16.67-18.35,22.28-14.24,54.29-11.73,75.64,2.98,42.21,29.08,55.89,74.91,37.43,123.09-4.33,11.29-24.36,38.83-33.83,46.17-9.72,7.53-44.4,17.66-56.42,16.56-22.93-2.09-50.2-28.9-48.38-52.36,1.42-18.34,11.39-21.53,26.77-27.58l1.67,3.96c-9.58,6.09-20.32,16.66-16.09,29l25.77-8.25c14.27-5.66,32.98-21.56,35.5-37.5,1.22-7.72-2.09-26.63-5.95-33.57s-20.03-19.62-27.36-12.75c-6.65,6.23-2.22,19.17,1.5,16.02,5.56-16.08,20.92-.39,19.97,11.4-1.48,18.22-24.53,25.85-40.17,23.39-5.99-.94-16.6-7.59-21.75-6.33-10.01,2.45-26.5,15-32.82,23.24-20.67,26.96-14.43,76.87,17.15,92.51,4.84,2.39,17.56,4.9,7.19-2.19-6.44-4.41-10.29-5.09-16.02-11.98-21.7-26.08-15.89-63.37,11.18-82.84,11.06-7.95,26.56-14.59,38.33-4.18-4.5.98-10.32,1.54-14.57,2.94-1.37.45-10.03,5.71-10.33,6.23-.38.68.83,2.24.61,3.18-1.64,6.99-6.05,15.07-5.24,23.19.35,3.54,5.42,7.39,3.53,10.46l1.99-1.02.02,5.02,1.98-1.01ZM566.13,802.06c1.14,7.36,1.45,12.18,10.25,10.75,18.45-2.99,42.06-15.47,54.25-29.75,18.68-21.87,22.88-60.2-.99-80.04-4.09-3.4-13.86-10.39-18.52-4.99,12.79,2.16,22.37,13.29,26.28,25.23,8.22,25.09-.52,46.96-20.27,63.29-9.09,7.52-31.34,18.35-42.97,19.03-1.54.09-4.05-.05-5.36-.72-1.84-.95-1.04-2.87-2.68-2.81ZM307.12,697.07c-26.89-2.61-39.81,28.83-38.03,51.53,2.18,27.87,25.73,49.01,50.51,58.49,4.8,1.84,25.01,8.03,28.29,4.73,3.42-9.83,6.15-24.54-2.73-32.29-4.32-3.77-10.29-3.84-14.01-7.97,23.37-27.89,60.05,1.11,68.44,27.54,3.47,10.92,3.84,22.82-.27,33.65-5.73,15.1-18.34,25.59-29.19,36.81,1.86,1.71,4.2-2.18,5.51-2.14.71.02,1.44,1.65,2.48,1.21,1.27-.54,17.62-17.27,19.42-19.65,20.31-26.79,14.54-70.1-14.75-88.09-6.91-4.24-16.44-6.12-21.16-12.79-11.29,8.05-30.52,12.91-43.5,7.45-11.37-4.78-18.07-15.22-15.78-27.75,1.64-8.97,19.83-18.22,19.77-3.74,3.43,3.65,10.22-16.97-2.51-18.04-18.66-1.56-34.47,23.14-25.35,39.4,3.09,5.51,16.48,18.38,21.95,22.05,4.28,2.87,11.06,4.96,14.6,7.91,1.11.92,10.25,11.74,9.3,12.68-23.13-3.85-43.06-18.03-50-40.99-3.18.92-.23,9.33.71,11.8,4.97,12.95,22.18,28.14,35.04,32.96,4.82,1.81,22.13,3.89,23.12,7.94,2.28,9.33-21.44,3.19-25.82,1.76-40.94-13.32-69.57-63.88-30.98-96.9l14.93-7.55ZM423.54,743.64c-11.6-12.41-26.42-24.15-43.41-27.59.78,4.15-2.93,7.29-3.86,10.68-.51,1.87.11,1.06,1.12,1.55,7.62,3.65,14.38,4.89,22.04,9.97,35.49,23.52,49.15,67.43,32.17,106.79-8.53,19.78-29.36,29.77-49.49,34.04l1.68,3.02c33.76-2.21,62.87-30.69,65.31-64.55,1.94-27.02-7.21-54.26-25.57-73.91ZM390.12,870.05c11.31.66,24.52-14.62,29.8-23.69,22.88-39.32,3.82-86.74-34.78-106.82-12.64-6.58-10.69-5.51-20,5.02.69,1.06,1.37,1.21,2.52,1.46,41,8.96,64.69,57.54,46.64,95.72-5.48,11.6-17.21,18-24.18,28.31ZM350.34,867.37c.65-.24,1.91.66,3.45-.04,29.06-13.17,48.29-48.25,29.14-77.59-4.54-6.96-18.53-17.22-26.33-19.68-.51-.16-1.63-.27-1.48.48l4.99,4.01h-3.99c20.26,35.27-12.39,69.53-47.68,72.41-4.62.38-8.58-2.49-12.32,1.09,2.02-6.07-2.3-2.97-4.51-3.48-10.79-2.49-24.63-10.14-34.45-12.07-11.98-2.35-20.56-1.56-31.06-9.94-4.32-3.45-10.65-12.88-14.01-15.05-.41-.27-7.35-.53-9.77-1.18-10.55-2.88-19.56-9.71-30.21-11.27l17.69,12.79c12.01,4.4,21.46,12.68,32,19,15.86,9.5,32.42,13.05,50.08,17.92,2.18.6,6.1,2.99,6.91,3.1,1.33.19,3.96-2.93,6.29-1.8l.03,3c2.51-.59,6.72,2.32,10.59,2.94,3.36.54,5.75-1.7,8.38,1.03-.61-2.97,7.43-1.18,10.03-1.47,29.43-3.18,60.32-32.19,51.7-63.74l-4.23-11.77c20.76,9.57,28.31,32.31,21.56,53.55-6.34,19.96-30.76,33.78-49.05,40.95,5.55.78,9.96.03,15.24-1.59.66-.2.8-1.54.97-1.6ZM543.12,781.06c-11.78,3.55-18.09,26.13-17.55,36.96,1.05,21.11,19.55,44.71,39.56,50.54,4.52,1.32,9.25,2.71,13.99,2.5.46-2.58-.43-1.79-2-2.44-33.47-13.89-56.22-36.36-41.16-75.23l7.17-12.32ZM641.12,861.06c-35.2,7.38-77.11-1.87-93.77-36.73l-4.21-15.27c-5.59,25.92,20.33,47.98,42.78,54.71,11.39,3.41,30.33,5.93,41.77,2.95,1.26-.33,1.1-2.22,1.61-2.54.42-.26,7.04-.2,9.63-.89,1.76-.46,2.63.47,2.19-2.23ZM297.12,868.05c24.85,2.83,73.24-17.07,76.92-44.58.19-1.45.28-15.2-1.91-12.41-2.72,22.09-18.4,35.98-37.5,45.01-11.18,5.29-22.85,6.02-34.15,9.85-1.31.44-3.05.29-3.36,2.13Z"/>
  <path d="M484.23,147.16l.89,23.9c9.32.97,19.05,1.72,27.49,6.01.23-4.94,9.93-7.14,13.79-6.79,5.59.5,15.56,6.02,14.77,12.72l29.2,3.31c20.73,4.61,30.61,26.25,17.58,44.07-11.73,16.04-30.31,12.05-47.72,14.78-1.31,9.22-11.21,16.39-20.4,13.68-2.44-.72-4.65-5.83-7.19-5.81-8.45,5.35-18.97,4.99-28.52,7.02.3,1.84.99,3.52,1.06,5.44,1.48,44.67,4.17,89.31,6.99,134.01,2.11,33.37,1.9,75.34,8.41,107.59,9.51,47.14,51.18,53.35,86.47,26.36,4.05-3.1,29.28-27.28,26.07-31.42-7.59,3.32-34.8,2.72-39.05-4.43-6.39-10.73,14.42-18.48,20.97-23.16,15.49-11.06,33.09-26.09,45.61-40.39,5.84-6.67,10.1-14.42,16.05-20.97,3.24-.7,7.22,15.04,7.94,17.95,7.55,30.35,11.16,57.08-1.65,86.37-1.6,3.65-8.35,19.57-13.69,16.46l-6.16-12.81c-13.69,40.24-43.64,73.7-79.1,96.4-32.05,20.52-68.94,31.28-91.34,64.66-5.99,8.93-8.96,19.41-15.07,27.91-5.27-8.68-8.39-18.54-13.87-27.11-23.39-36.59-71.88-50.61-105.94-75.06-30.13-21.62-54.93-52.87-67.7-87.81-2.55-1.92-2.94,21.06-12.55,12.06-3.71-3.48-11.44-26.36-12.76-32.24-5.66-25.19-.95-57.48,8.07-81.57.56-1.5.67-4.65,2.6-4.12,4.42,1.21,15.95,18.35,20.13,22.89,17.71,19.23,40.35,30.47,58.98,47.02,11.4,10.12,11.7,15.27-4.25,18.69-9.56,2.05-20.09,2.16-29.21-1.72-1.43,1.93,5.9,11.13,7.48,13.01,7.23,8.59,19.64,18.92,29.2,24.8,37.37,22.96,74.65,6.47,80.29-37.32,4.19-32.49,4.1-69.83,6.03-102.97,2.54-43.42,4.81-87.23,5.93-131.06.07-2.61,2.39-6.31-.63-7.28-3.41-1.1-9.38-1.61-13.33-2.67-2.19-.59-11.83-4.2-12.49-4.16-2.88.17-6.55,6.87-15.76,5.41-10.57-1.67-12.42-13.97-14.38-14.64l-26.78-2.22c-15.25-2.87-28.3-20.24-22.79-35.62,7.08-19.76,31.7-21.68,49.55-23.45,4.9-9.45,18.14-16.83,27.64-9.32,1.76,1.39,1.55,3.73,3.44,3.51,6.04-3.99,22.99-2.78,26.08-9.01.69-1.39,1.06-20.12.37-20.91-49.62-14.09-64.54-81.12-32.39-119.13,33.91-40.1,97.04-37.02,124.93,8.09,24.29,39.29,6.29,97.9-39.32,111.02ZM483.13,134.05c42.8-15.99,50.71-74.16,18.01-104.51-45.61-42.33-117.76-1.79-106.78,58.78,4.62,25.5,31.36,50.68,57.76,50.73-.04-7.67-5.98-3.76-10.01-4.38-9.71-1.51-25.93-15.57-31.39-23.7-12.12-18.06-13.25-47.79.43-65.39,39.93-51.33,122.4-15.65,103.12,50.12-5.7,19.44-17.49,22.38-29.49,34.51-1.32,1.33-2.15,1.34-1.65,3.84ZM443.12,125.05c2.61-2.65-14.24-11.1-16.47-13.02-39.86-34.34.4-98.25,49.74-78.74,31.64,12.52,39.3,57.08,12.66,78.18-3.25,2.57-9.7,5.1-11.89,7.11-3.24,2.97,1.38,3.83,4.7,2.69,12.42-4.26,22.81-17.59,25.81-30.19,10.95-45.95-34.8-83.62-76.23-58.23-38.79,23.78-30.81,79.27,11.69,92.19ZM434.48,102.7c8.15,8.07,7.86,4,16.14,3.35,3.37-.27,8.73-.34,12.05-.03,5.64.52,8.77,4.51,13.41,1.49,26.97-17.54,20.29-59.17-11.69-64.21-33.38-5.26-55.04,34.52-29.91,59.41ZM460.12,118.06c-4.21-1.64-7.4,2.98-9.87,3.49-1.24.26-2.57-.6-3.64-.48-5.37.58.72,11.59,6.51,9,1.1,11.73,1.1,23.28,0,35l7-1v-46ZM449.12,152.05l-2.93.05-2.07,12.96h6.01s-1.01-13.01-1.01-13.01ZM440.12,178.06v65.5c0,.56,1.46,2.21,1.01,3.5.98-.8,4.48-1.69,4.8-2.19,2.37-3.64.19-18.66,2.2-23.81,5.28,3.29,5.1,16.95,8,19.99.72.76,1.58-2.37,2.66-2.27l2.34-27.7c2.63,0,7.13-.82,8.49,1.98,1.19,2.46.61,15.51,1.53,20.48.3,1.63-.68,1.74,1.95,1.52,2.63-13.06,1.73-26.3,1.97-39.54.07-4.01,3.46-15.73-1.35-17.64-8.16-3.24-24.63.75-33.61.18ZM392.11,245.05l2.06-59.54-.98-3.02c-1.87-1.33-7.13-.06-7.9,2.23.71,6.2-1.24,13.02-1.25,18.83,0,2.32,1.11,4.57,1.13,6.96.06,8.05-1.72,25.39,2.51,31.49.63.91,3.23,3.93,4.44,3.04ZM530.98,184.2l-8.86-2.14c-1.04,21.37-1.5,42.87,1.01,64,9.58-3.45,6.53-16.22,7-24.49.11-1.95.95-3.84,1.03-5.97.4-10.42-.26-20.99-.18-31.4ZM405.12,188.06v26.5l1.63,1.42c3.41-.12,16.13-1.56,17.23,1.74,1.76,5.26-4.53,5.33-2.85,7.32l4.49,3c1.72-1.08,1.28-1.86,1.42-3.4.56-6.45.52-15.43.52-22.08,0-6.09-.9-12.36-.45-18.5l-21.99,4ZM492.62,215.06c4.06-1.14,12.81.84,17.5,0v-25.5c0-.2,1.41-1.1,1.01-1.49-6.29-.55-13.46-2.63-19.65-2.96-1.13-.06-2.17-.2-2.91.9-2.69,3.99,2.43,34.17.56,41.05,10.89-3.74,1.76-5.1,1.08-7.68-.4-1.54,1.31-4.01,2.41-4.32ZM373.12,195.06c-12.06,1.08-38.66,2.81-38.09,19.51.54,15.89,28.46,11,39.09,13.49v-3.99c-6.52.28-27.28-1.54-31.55-5.98-1.73-1.8-1.58-3.28.17-5.09,2.3-.41,10.37,5.97,9.39-.93l1.51,3.04c4.04-.07,9.12-.73,13.02-.56,1.31.05,6.46,2.8,6.46.02v-19.5ZM576.78,204.4c-7.35-8.39-22.41-7.51-32.68-8.92-2.51,1.83-.18,9.23-.06,11.97.09,2.08-2.32,5.07.05,7.19,7.76-1.25,15.77,1.59,23.59.48,3.07-.44,7.05-4.77,8.47.41-.18,9.27-25.1,6.85-31.35,8.7-1.98.59-1.79,2.28-1.66,3.83,7.95-1.86,16.57-1.19,24.38-2.11,11.88-1.4,17.72-11.89,9.26-21.54ZM419.13,223.07l-13-2c-.49,3.01.73,1.61,2.43,2.02,3.37.83,6.97.55,10.09,1.96l.48-1.97ZM512.12,231.06l-24,4v2.99c.66.68,16.49-1.91,18.8-2.7,2.04-.69,5.49-1.44,5.2-4.29ZM428.12,238.05c.37-2.67-2.8-3.36-4.73-3.75-5.97-1.21-13.15-1.22-19.25-1.23-.47,2.84.58,1.67,2.31,2.13,2.53.68,20.83,3.56,21.68,2.86ZM459.13,272.05h-5.01s-1.01,8-1.01,8c-3.48-1.09-4.63-5.77-9.03-4.58-3.38,8.27-1.41,17.41-1.97,26.07-3.76,57.97-6.09,116.08-9.95,174.05-2.12,31.76-3.32,65.46-36.06,80.94-27.03,12.78-50.11,3.45-72.71-12.26-13.96-9.71-22.69-18.52-33.77-31.23-.33-.38-2.16-2.74-2.52-1.48,15.74,27.59,37.12,50.6,65.16,65.84,18.48,10.05,38.27,17.14,57.85,24.66.33,2.41-.17,2.24-2.29,1.79-6.95-1.5-18.56-5.87-25.48-8.53-11.84-4.56-22.25-11.67-34.23-15.26,27.2,21.6,67.5,29.46,92.55,53.94,1.27,1.24,10.12,10.81,10.51,11.49,1.11,1.96,1.14,3.38.94,5.55-9.59-10.98-19.44-20.81-32.07-28.42-19.99-12.05-42.98-18.48-62.24-31.76-42.46-29.3-68.43-62.51-86.45-110.55-3.01-8.03-6.36-17.91-7.22-26.27,16.34,18.03,32.86,34.97,58.48,38.01,1.12-.33.56-2.27.03-3.03-.82-1.18-17.57-10.83-20.84-13.16-16.06-11.48-29.91-24.36-42.19-39.81l-6.58,34.49c1.81,13.39,1.21,27.35,9.08,39.01,1.87,1.04,1.04-5.45.99-6-1.03-10.58-3.19-21.37-4.08-32.01l2.08-10.49c8.89,28.99,19.01,57.49,38.04,81.47,17.52,22.08,37.98,42.1,62.05,56.95,21.31,13.14,44.26,20.99,64.4,36.6,14.72,11.41,25.37,23.75,33.02,40.96,6.09-15.75,13.17-26.97,26.03-37.95,15.84-13.53,34.28-20.13,52.15-29.85,60.63-32.99,94.29-75.92,113.59-142.41,2.78-9.56,5.87-21.12,3.24-30.76-12.79,14.6-26.56,28.28-42.19,39.81-6.92,5.11-14.99,8.68-21.31,14.7-1.24,2.46,4.52,1.39,5.25,1.25,26.06-4.96,36.36-17.9,52.92-36.08.7-.77,1.56-2.91,2.81-1.19-5.49,15.27-11.04,33.39-20.16,46.84-20.9,30.85-55.41,65.98-96.24,60.59-8.23-1.09-17.03-7.47-25.58-6.42-.48.69,7.53,4.34,3.52,4.49-6.96-2.14-13.31-7.36-20.52-7.97-1.17.88,9.83,10.59,11.06,11.43,5.22,3.55,12.25,4.35,15.93,9.55-7.48-.1-15.86-4.31-21.93-8.55-1.4-.98-11.05-10.49-12.06-9.43,2.48,8.68,7.75,13.74,14.87,18.62,1.52,1.04,16.04,7.51,7.64,8.41-4.59.49-21.66-10.21-25.43-13.61s-6.15-8.49-9.47-12.55c-.85-1.04-.01-2.5-2.6-1.87.15,3.06-.39,6.23.22,9.27,1.86,9.15,23.92,23.13,32.06,27.43,23.49-4.4,45-9.71,65.63-22.29l27.08-19.41c-12.64,14.35-31.22,25.21-48.64,32.85-13.47,5.91-25.95,8.41-40.35,10.64l-1,1.49c9.12,3.22,20.52.12,29.52-2.97,26.83-9.19,53.02-25.93,71.99-47.01,3.48-3.87,6.41-9.14,9.97-13.03,1.19-1.3,1.74-1.66,1.5.5-11.3,16.67-25.22,32.51-41.66,44.35-17.91,12.9-41.01,19.92-61.32,28.18-.23,1.86,2.03.79,3.04.54,10.28-2.46,23.79-8.07,33.63-12.38,3.5-1.54,7.21-5.06,10.32-4.68-28.36,22.51-67.31,27.88-91.51,56.49-4.01,4.74-6.58,10.27-10.48,15.01l-1.01-387ZM658.11,494.05c1.81-5.62.8-11.65,1-17.48l-3.97-16.51,1.04,25.51,1.94,8.48Z"/>
  <path d="M752.12,357.06c2.62-8.01,7.75-14.89,10.77-22.73,10.48-27.29,6.64-56.89-9.54-80.99-14.22-21.17-40.11-41.38-67.23-35.27-.21,2.64-.1,1.65,1.52,1.96,17.44,3.26,27.09,3.4,41.49,15.52,29.65,24.97,41.27,63.12,25.45,99.47-5.56,12.79-13.33,25.5-29.46,21.54,17.02-20.65,28.07-48.68,20.98-75.5-1.77-.23-.91,2.26-.98,3.48-1.16,20-1.91,31.7-12.49,49.53-3.34,5.63-23.07,30.71-29.06,29.77-5.1-8.04-8.68-16.47-14.95-23.8-31.91-37.26-105.03-46.58-126.24,5.78-7.95,19.63-3.41,57.49,23.73,57.22-17.33-17.54-10.81-42.19,7.52-55.97,24.3-18.27,64.57-5.28,78.64,20.31,2.65,4.81,5.35,8.77,1.37,13.71-1.78,2.21-3.55,3.83-6.51,2.46-2.54-1.17-11.98-15.36-16.01-19.01-10.32-9.34-28.31-17.72-42.01-12.47-1.51,1.59.14,1.76,1.51,1.96,5.62.83,9.59.76,15.17,2.85,10.9,4.09,24.01,14.04,29.74,24.26,7.11,12.68-3.02,11.62-9.41,19.42-4.57,5.58-7.32,13.83-11.41,19.62-.84,1.18-.03,2.45-2.58,1.88.67-10.62,4.27-19.11,1-29.99l6.99.99c-2.88-13.65-27.2-30.37-40.49-30.08-14.27.31-17.52,24.9-5.52,30.08,2.46-24.27,26.53-12.69,28.93,5.58,5.36,40.86-47.41,56.16-77.22,37.22-50.54-32.1-32.63-107.62,10.99-138.62,54.38-38.64,124.92-14.21,164.83,32.81,1.91.48,6.95-9.2,7.86-11.12,18.67-39.38-1.45-89.42-47.42-92.46-3.05,2.2.95,16.64,5.55,16.62,9.1-7.95,15.67-6.4,19.98,4.98,4.58,12.09-6.44,23.67-17.13,27.84-29.05,11.34-65.09-14.55-74.81-41.89-19.8-55.69,25.75-101.51,77.66-111.23,17.94-3.36,34.78-.5,52.8.26.51-1.97-.81-1.93-1.68-2.81-12.98-13.15-22.4-27.68-37-39-33.38-25.88-90.63-52.92-123.3-11.66-9.64,12.18-9.53,23.5-3.51,37.46,4.14,9.59,14.54,16.84,25.12,16.93,8.83.07-4.94-7.33-6.64-9.4-6.75-8.21-3.85-23.13,2.04-30.99,8.26-11.02,23.86-19.76,37.54-18.64.52.04-.01-1.85,1.89-2.01,7.38-.62,26.63,6.93,33.9,10.26,13.17,6.03,44.24,27.06,52.63,38.36.79,1.06,2.68,2.83,1.04,4.02-1.94,1.1-12.47.72-14.78-.28s-10.3-11.47-13.77-14.23c-2.58-2.04-5.5-3.64-8.47-5.02-1.71,1.76,12.02,14.63,12.02,17.53,0,4.13-11.06,2.93-13.33,2.27-3.31-.96-17.94-23.64-22.81-28.19-7.97-7.47-23.34-12.24-34.16-10.37l-8.73,3.75c12.48.44,29.64,2.76,39.5,11.01,2.72,2.28,15.77,19.92,16.35,22.74,1.14,5.52-7.89,7.74-12.02,8.6-1.9.4-3.77-.62-5.86.06-2.7.88-2.06,3.03-3.96,3.6.3-4.16-2.56-7.51-4.59-10.91-5.43-9.07-13.65-20.45-23.88-24.12-2.72-.98-14.28-3.48-16.49-2.46-8.68,4.03-8.02,20.98,1.44,24.49l3.55-11.47c16.78-6.57,20.51,15.09,15.15,27.15-10.17,22.92-42.26,24.97-61.1,11.73-25.88-18.18-28.72-62.57-13.5-88.34,28.22-47.82,93.15-40.19,135.47-17.63,31.7,16.9,81.28,60.25,95.45,93.55,1.7,4,2.25,12.96,2.72,13.79.95,1.68,17.96,11.49,21.29,14.2,68.47,55.97,105.31,181.67,72.52,264.52-2.47,6.24-6.21,15.55-12.01,18.97,13.2,19.87,20.52,44.57,23.86,68.14,7.59,53.6-12.31,117.09-39.7,163.04-3.7,6.21-7.33,13.57-13.68,17.32-.99-.09-.47-1.61-.4-2.39.45-4.73,6.33-25.91,8.18-30.82,3.72-9.86,12.02-21.04,16.58-31.42,35.6-81.16,25.6-173.44-48.94-227.77-40.48-29.5-94.09-33.21-134.83-2-5.88,4.5-14.18,10.6-15.1,18.41l-8.98-12.98c5.33-2.14,9.03-7.55,13.52-11,16.49-12.68,44.27-25.42,64.99-27.01,12.56-.97,24.36,1.17,36.8,1.09,19.55-41.97,24.03-89.28-4.48-128.43-14.06-19.3-43.93-40.8-68.83-32.65-1.47,1.47.11,1.8,1.49,1.98,16.66,2.1,26.57,4.5,40.42,14.59,38.28,27.87,49,78.67,32.11,121.94-2.19,5.6-5.26,12.31-9.52,16.48h-15.5ZM779.12,134.05c-20.51-33.3-48.07-63.48-81.69-83.8-32.88-19.87-74.26-32.03-109.98-11.36-42.6,24.65-33.31,103.96,15.18,99.17,9.63-.95,21.21-8.62,21.48-19-2.82,2.74-7.37,4-10.26,5.96-1.1.74-1.39,2.49-2.75,3.5-5.23,3.9-11.93,2.66-17.78.84-23.16-7.2-30.25-44.75-16.18-62.77,47.03-60.26,147.52,2.4,178.16,51.79,1.38,2.23,1.87,5.93,3.11,7.4,1.82,2.17,19.81,9,20.71,8.27ZM857.13,414.06c-1.48,1.82,10.21,13.5,11.49,15.98,9.71-19.05,16.22-43.1,18.49-64.49,4.47-42.15-13.31-103.16-33.82-140.16-36.99-66.74-110.97-118.54-187.86-81.52-50.08,24.11-60.98,100.13-1.29,120.67,10.04,3.45,27.86,1.41,32.58-9.41.6-3.94-11.62.4-15.61-1.56-.64-.31-8.01-9.82-8.81-11.19-12.4-21.04,6.94-45.81,27.83-51.81,58.2-16.73,108.63,52.94,119.52,102.46,4.74,21.55,4.74,43.71-2.25,64.81-.67,2.02-4.72,11.24-5.78,12.24-2.86,2.71-9.07-2.47-12.38-3.15-1.31-2.06,5.78-16.8,6.82-20.43,3.56-12.44,5.69-32.14,2.85-44.73-.39-1.73-1.62-4.11-3.78-3.71-1.45,15.11-.68,28.6-4.97,43.53-.82,2.83-6.94,19.07-8.29,20.22-2.17,1.85-9.96-1.7-9.74,3.23l39.95,17.57c2.79,5.59,10.75,8.26,14.72,11.78,4.59,4.08,10.75,13.45,15.79,16.71,1.23.8,1.99,1.24,3.54.95.08-10.16,5.17-19.9,7.72-29.78,2.18-8.44,4.36-17.6,5.8-26.19,2.17-12.92,2.02-26.06,5.19-38.79.45-1.82-.3-2.68,2.29-2.24.34,9.19,3.52,18.14,4.05,27.45.94,16.66-2.93,35.69-7.33,51.76-1.12,4.1-5.55,21.68-9.41,22.66l-7.29-2.88ZM568.54,322.5c37.58-37.26,98.79-19.59,131.1,15.54,3.15,3.42,4.66,8.56,9.44,10.62,6.59-3.9,9.39-7.19,3.6-13.66-46.06-51.44-134.68-69.64-175.18-2.08-20.84,34.76.77,85.03,42.09,87.16,9.95.51,11.66-2.01,19.8-4.28,1.38-.38,1.93-1.82,1.73.73-26.2,25.8-66.92-.36-71-32.48-4.66,4.49.34,16.44,2.99,21.52,10.97,21.07,35.36,32.95,58.28,24.24,12.74-4.84,28.79-22.67,15.75-34.76-6.29,22.5-34.16,19.1-48.04,5.53-5.49-5.37-12.08-17.89-10.49-25.55l2.01,1.01c2.75-1.45,1.21-14.97,1.47-18.54.85-11.83,8.07-26.7,16.45-35.01Z"/>
  <path d="M183.13,483.06c1.85,15.81,25.58,13.54,35.69,7.19l11.3-10.19.79,14.79c-16.46,15.33-60.21,16.53-60.71-13.43-.09-5.37,8.85-13.22,13.92-10.85,2.23,1.04,3.5,5.9,7.02,4.04,3.19-1.69,5.01-12.15,2.86-15.41-21.61-.08-41.39,22.2-49.72,40.5-4.41,9.69-4.92,19.2-7.7,29.3l-15.44,9.05c-.03-20.99,6.05-42.07,18.58-58.91,10.86-14.59,29.24-30.68,48.42-30.09-.09-6.74-7.81-4.93-12.43-3.92-31.66,6.94-55.58,46.6-60.31,76.69-.75,4.78-1.39,26.55-3.4,28.12-.61.48-2.56-.27-3.63.32-.99.55-4.74,7.84-8.22,7.79-6.75-31.9,3.81-65.18,22.17-91.31,10.63-15.13,26.61-29.22,45.82-30.69-4.35-7.13-18.91-1.57-25.04,1.47-38.69,19.22-53.7,75.24-52,115.08.37,8.72,5,18.51-1.94,25.98-6.27,6.74-8.46-1.87-9.72-7.32-5.71-24.65-2.05-59.03,6.68-82.72,11.56-31.34,43.44-72.18,81.05-64.02,21.91,4.76,45.39,21.91,36.15,47.22-3.58,9.81-9.83,13.65-20.18,11.32Z"/>
  <path d="M796.77,440.41c30.11,28.42,50.4,92.29,36.09,131.89-1.09,3.01-2.33,4.31-5.25,5.69-2.43-3.62-7.51-9.49-7.96-13.79-.31-2.97,1.89-6.85,2.17-9.93,3.56-39.72-6.85-81.9-38.22-108.18-11.13-9.32-25.53-17.73-40.47-12.53,4.85,2.8,10.7,3.04,15.98,5.02,34.22,12.82,57.92,66.24,56.05,101.03-.14,2.65-.94,10.96-3.03,12.02-1.47,1.08-2.09-.28-3.04-1.03-1.43-1.13-8.15-7.32-8.53-8.47-1.16-3.48-.03-7.9-.45-11.55-3.89-33.72-19.69-68.38-52.31-82.69-6.26-2.75-19.71-9.43-22.67.17,41.79,3.22,68.7,47.99,66.99,87l-15.45-10.04c-2.19-9.18-3.08-18.22-6.78-27.22-6.31-15.36-22.74-33.95-39.5-37.5-2.15-.45-10.37-1.91-11.11.42-1.43,4.49-.11,13.6,4.35,16.33,10.18-16.52,23.12.38,14.71,14.73-7.46,12.72-25.89,15.97-39.26,12.85-10.53-2.46-23.2-9.32-15.4-21.59,6.21,2.15,9.83,7.17,16.47,9.52,9.8,3.47,25.92,3.48,28.97-8.48-12.08,7.47-20.72-8.2-21.06-18.49-.62-18.71,10.81-28.95,25.76-37.31,21.26-11.88,46.01-3.84,62.95,12.15Z"/>
  <path d="M851.11,643.05c-2.1,1.47-4.25-4.56-4.54-5.94-2.5-12,6.95-27.42,10.57-39.54,17.86-59.67,13.17-121.77-29.5-169.53-33.09-37.03-96.44-52.9-135.16-14.63-5.41,5.35-8.41,13.69-14.34,18.64-.89-4.21-4.63-7.34-2.49-11.98.3-.64,8.42-9.61,9.44-10.56,30.64-28.32,80.05-31.6,115.71-11.63,59,33.04,85.03,102.14,76.04,167.38-3.68,26.74-11.27,54.9-25.73,77.78Z"/>
  <path d="M235.12,431.05c-1.97,1.82-11.69-12.97-13.02-14.47-25.87-29.34-71.18-30.55-103.89-11.95-42.82,24.36-68.66,71.19-71.12,119.88-1.16,22.99,4.33,54.24,11.76,76.33,4.23,12.58,15.78,28.54,9.5,41.96-1.42,3.04-5.45-2.14-6.66-3.81-5.92-8.2-12.84-28.1-15.83-38.17-22.3-75.06-7.19-154.7,61.94-198.59,34.12-21.65,81.59-23.78,113.34,3.31,1.83,1.56,14.04,13.54,14.46,14.53,1.54,3.6-.07,7.38-.48,10.98Z"/>
  <path d="M725.13,755.06c-3.8-10.81,3.83-16.24,10.46-23.03,43.84-44.9,52.48-96.58,16.38-150.33-14.92-22.21-65.66-25.52-79.06-.35-3.82,7.18-4.79,18-1,25.41.85,1.66,9.21,10.35,8.2,11.29-16.21-3.48-26.82-27.79-15.04-40.54,30.11-32.61,86.12-25.86,106.76,13.34,29.7,56.42,13.11,119.75-36.24,158.18-1.53,1.19-8.96,7.31-10.46,6.03Z"/>
  <path d="M838.39,607.78c-1.08-1.04-2.54-5.97-2.82-7.66-1.54-9.55,3.95-18.6,6.09-28.02,11.71-51.68-3.13-111.75-45.62-145.45-26.03-20.65-66.28-19.54-90.93,2.91-17.05,15.54-9.67,48.55,10.01,59.01-17.5.55-20.5-12.53-25.25-25.75-.67-1.86-3.91-7.82-3.54-8.58.08-.17,1.59-.07,1.79-.83.76-2.88-.4-7.37.49-11.35,7.65-34.37,65.75-42,94.03-32,66.4,23.48,86.5,123.69,66.98,184.01-1.12,3.47-5.65,19.13-11.23,13.73Z"/>
  <path d="M198.12,488.05c17.76-11.4,24.27-29.96,15.19-49.68-13.79-29.95-57.91-31.75-83.86-17.48-51.31,28.22-67.41,93.87-58.01,148.36,1.66,9.65,7.02,22.31,6.74,31.35-.14,4.6-1.44,14.77-7.57,9.48-4.66-4.03-12.93-45.69-13.48-53.52-3.92-56.76,18.38-116.87,70.97-144.01,34.65-17.88,99.48-3.96,96,44-1.1,15.21-7.51,33.6-25.98,31.51Z"/>
  <path d="M251.11,580.05c2.08,1.92,1.54,16.92.78,20.27-2.17,9.6-9.6,14.55-18.28,17.72l7.7-11.31c9.26-14.77-8.22-34.49-21.49-39.87-23.9-9.69-53.3,2.94-65.21,25.17-23.32,43.56-16.11,96.1,16.01,133.03,8.57,9.85,22.36,16.77,21.51,31.99-4.45.32-8.67-2.79-12.01-5.49-47.56-38.52-64.25-96.79-39.75-153.77,14.7-34.19,58.96-52.05,91.49-30.96,4.92,3.19,12.54,12.15,16.34,13.74,1.38.58,2.82-.63,2.93-.53Z"/>
  <path d="M349.11,371.06l-10.58-19.91c-19.01-27.52-57.06-27.37-82.94-9.11-12.22,8.62-18.78,19.85-26.96,31.97-1.96-1.64-7.35-3.56-7.33-6.24.05-5.91,11.9-19.47,16.29-23.74,19.81-19.28,51.9-28.91,78.48-19.42,19.34,6.91,36.7,24.55,33.03,46.46Z"/>
  <path d="M571.11,376.05l-2.05-7.46c-.53-31.15,27.49-46.27,55.57-47.51,21.36-.94,46.61,13.89,60,29.97,2.01,2.41,9.11,13.24,9.33,15.7.26,2.88-5.32,6.44-8.83,4.81-2.5-1.16-12.33-18.1-15.99-22.02-16.53-17.72-51.4-25.75-73.04-13.99-14.63,7.95-26.4,23.22-24.99,40.51Z"/>
  <path d="M203.96,642.26c1.51,1.44,7.28,23.93,8.15,27.79-6.12.67-8.74-4.04-10.31-9.18-.68-2.21.02-5.92-1.67-6.81-4.89,9.29,4.68,20.43,4.95,27.59.32,8.26-6.17,7.24-10.4,1.34-11.69-16.3-13.15-56.15,5.43-68.93,2.35,8.57,1.23,17.58.16,26.3l1.33,1.8c.79.69,2.2-.05,2.36.1Z"/>
  <path d="M717.11,649.06l-7.97,19.51c-1.83,2.32-5.33,4.19-7.98,2.01,5.52-11.86,13.03-23.3,11.94-37.01-.57-7.21-3.81-12.8.03-20.51,13.13,7.63,16.34,30.41,14.87,44.37-.6,5.7-8.58,32.72-16.22,30.53-6.54-1.87,2.58-18.28,3.68-23.07,1.19-5.17,1.92-10.53,1.65-15.83Z"/>
  <path d="M161.11,484.06c.1,1.99,1.49,3.84,1.77,5.73.96,6.41-1.52,24.67-6.82,28.71-.83.63-10.53,6.01-10.94,5.55-.56-12.85,4.76-28.6,13.16-38.33.89-1.03.99-2.09,2.83-1.66Z"/>
  <path d="M769.11,520.06c-3.51-2.49-10.8-2.92-12.78-6.71-1.34-2.55-5.8-20.63-6.11-23.91-.33-3.48.31-6.07.91-9.38,12.29,8.89,15.83,25.73,17.98,40Z"/>
  <path d="M526.76,486.21c6.4.42,8.51,7.61,12.4,10.31,2.2,1.53,5.23,1.89,7.65,3.35,8.48,5.11,16.92,10.4,25.3,15.68-3.83,3.51-9.87.78-13.96-1.02-8.51-3.73-13.72-8.65-20.64-13.36-4.95-3.37-19.81-5.26-10.74-14.96Z"/>
  <path d="M345.19,515.98l.55-3c8.91-3.08,16.36-8.75,24.34-13.46,1.93-1.14,5.12-1.51,6.37-2.39s1.36-3.19,2.65-4.6c2.16-2.36,8.48-6.65,10.59-2.46.33,6.38-7.64,7.94-11.91,11.13-1.48,1.11-2.03,3.02-3.15,3.85-4.4,3.25-18.41,10.65-23.46,11.61-2.37.45-3.78.23-5.97-.68Z"/>
  <path d="M575.08,465.1c.51,3.11-2.43,6-5.44,6.04-2.49.03-18.2-9.53-21.45-11.66-4.84-3.18-14.93-8.08-11.03-14.39,1.96-1.35,14.33,8.45,17.28,10.14,6.53,3.72,13.74,6.87,20.63,9.88Z"/>
  <path d="M339.13,466.07c7.93-2.35,17.65-6.47,24.69-10.82,3.41-2.11,11.76-10.22,14.85-10.18,1.33.02,1.64.58,2.43,1.48-1.44,3.31-2.41,6.27-5.47,8.52-2.9,2.13-6.38,2.07-8.44,3.56-4.09,2.96-5.71,6.2-11.85,9.15-5.43,2.6-16.59,8.4-16.21-1.7Z"/>
  <path d="M455.85,872.25c10.69-2.36,15.95,12.06,6.23,18.25-10.99,7-19.13-15.41-6.23-18.25Z"/>
  <path d="M455.83,724.19c9.12.04,15.1,13.56,6.21,18.28-12.35,6.56-17.52-12.57-6.21-18.28Z"/>
  <path d="M560.12,530.07c1.25,1.68-2.92,3.86-4.56,3.96-5.57.34-24.69-11.51-29.45-15.46-1.8-1.49-11-10.2-8.98-12.51,4.33,1.36,6.45,5.65,10.3,8.19,9.76,6.44,22.23,10.56,32.69,15.82Z"/>
  <path d="M515.83,280.26c11.14-3.36,16.72,11.85,6.51,16.53-12.35,5.66-16.64-13.47-6.51-16.53Z"/>
  <path d="M907.88,431.24c12.19-1.06,11.59,17.87-.25,17.87-11.29,0-10.99-16.89.25-17.87Z"/>
  <path d="M404.81,283.36c7.17,8.03-6.67,19.89-13.71,11.22s5.75-20.14,13.71-11.22Z"/>
  <path d="M356.13,533.04c-1.95-2.86,9.52-8.31,11.99-9.48s6.63-1.39,8.03-2.14c1.63-.87,12.95-13.5,14.93-6.75-.16,6.92-7.64,7.77-12.29,10.55-1.78,1.06-2.96,2.93-4.95,4.05-2.65,1.49-16.04,6.22-17.71,3.78Z"/>
  <path d="M6.83,431.23c2.03-.32,4.82.94,6.36,2.26,8.29,7.12-1.42,19.13-8.05,16.05-7.73-3.59-6.4-17.04,1.69-18.31Z"/>
  <path d="M550.83,12.27c16.23-4.83,15.62,20.49-1,15.58-6.91-2.05-5.25-13.72,1-15.58Z"/>
  <path d="M361.78,11.35c10.61-.53,12.05,14.9,2.82,16.69-14.09,2.73-14.24-16.12-2.82-16.69Z"/>
  <path d="M417.86,687.27c8.55-.83,11.05,10.49,5.32,15.35-11.98,10.18-19.54-13.96-5.32-15.35Z"/>
  <path d="M497.6,687.54c15.84-.41,5.91,26.36-5.52,14.06-5.42-5.83-1.78-13.86,5.52-14.06Z"/>
  <path d="M324.89,161.25c16.74-2.43,10.43,22.2-3.69,14.23-6.25-3.53-3.95-13.12,3.69-14.23Z"/>
  <path d="M379.86,138.21c11.43-2.06,12.82,19.95-1.8,15.39-8.32-2.59-5.04-14.16,1.8-15.39Z"/>
  <path d="M398.85,668.25c15.63-3.34,12.38,20-1.48,14.05-6.43-2.76-5.16-12.63,1.48-14.05Z"/>
  <path d="M370.84,474.24c1.67-.36,4.62-.62,5.23,1.42,1.68,5.67-16.08,12.68-19.26,16.62-3.18,2.87-6.21-5.26-4.81-6.78,2.93-1.98,6.46-2.75,9.46-4.62,2.79-1.74,6-5.92,9.38-6.65Z"/>
  <path d="M357.83,148.27c13.15-3.95,13.44,18.11,1.49,15.14-8.08-2.01-7.82-13.23-1.49-15.14Z"/>
  <path d="M554.85,148.23c10.12-2.95,12.15,14.5,2.72,15.86-9.94,1.43-10.8-13.5-2.72-15.86Z"/>
  <path d="M515.64,667.54c8.75.32,10.19,12.96,1.95,14.51-12.83,2.42-12.32-14.89-1.95-14.51Z"/>
  <path d="M563.04,484.13c.66,3.58-.61,6.69-3.42,8.91-3.01-2.64-5.33-4.54-4.5-8.99-5.01,1.66-13.27-.09-14.72-5.76-.84-3.26-.57-5.17,3.21-5.08,7.35.17,10.68,12.03,19.44,10.92Z"/>
  <path d="M529.83,139.27c15.02-4.46,13.21,17.97-.77,13.34-6.18-2.05-3.91-11.95.77-13.34Z"/>
  <path d="M593.84,164.34c7.03,7-3.63,17.57-10.76,10.26-6.8-6.96,4.4-16.6,10.76-10.26Z"/>
  <path d="M593.12,453.06c-1.3,10.04-14.5,6.06-19.99,1.48-.36-1.51,1.19-2.25,2.5-2.48,5.46-.97,12.01.78,17.49,1Z"/>
  <path d="M388.81,468.75c-1.29,1.41-10.48,7.04-11.67,3.75-.83-3.3,6.8-10.63,9.68-12.32,4.99-.23,4.71,5.59,1.99,8.57Z"/>
  <path d="M330.11,103.05l-4.21-16.27-7.77-13.72c1.06-1.08,6.75,5.05,7.51,5.98,6.04,7.41,6.9,14.7,4.48,24Z"/>
  <path d="M323.12,453.06c6.27,1.43,14.31-4.13,18.98,1.5-.03,1.53-21.83,8.77-18.98-1.5Z"/>
  <path d="M396.26,443.2c2.59-.57,6.79-.52,7.7,2.57,1.17,2.76-2.09,8.23-4.74,8.84-5.91-.09-4.52-7.35-2.96-11.41Z"/>
  <path d="M514.27,442.21l6.42.79c3.79,20.33-12.57,3.11-6.42-.79Z"/>
  <path d="M515.73,472.11c5.37-1.58,7.52,7.71,3.86,10.94-5.44.97-7.53-9.86-3.86-10.94Z"/>
  <path d="M397.83,474.23c2.86-.84,5.76.26,6.32,3.33-6.88,13.37-13.3-1.27-6.32-3.33Z"/>
  <path d="M533.12,469.05l-6.88-1.1c-.27-2.26-.81-5.25,1.37-6.85,4.19,1.25,5.93,3.42,5.51,7.95Z"/>
  <path d="M590.11,94.05c-1.81.24-.83-2.07-.76-3.22.35-5.78,5.19-11.47,9.76-14.77l-9,17.99Z"/>
  <path class="b" d="M459.13,272.05l1.01,387c3.9-4.74,6.47-10.27,10.48-15.01,24.19-28.61,63.15-33.98,91.51-56.49-3.1-.38-6.81,3.15-10.32,4.68-9.84,4.31-23.35,9.92-33.63,12.38-1.01.24-3.27,1.32-3.04-.54,20.31-8.26,43.41-15.28,61.32-28.18,16.43-11.84,30.35-27.68,41.66-44.35.24-2.16-.32-1.8-1.5-.5-3.56,3.89-6.49,9.16-9.97,13.03-18.97,21.08-45.17,37.81-71.99,47.01-9,3.09-20.4,6.19-29.52,2.97l1-1.49c14.41-2.23,26.89-4.73,40.35-10.64,17.42-7.64,36.01-18.5,48.64-32.85l-27.08,19.41c-20.63,12.58-42.14,17.88-65.63,22.29-8.14-4.31-30.21-18.29-32.06-27.43-.62-3.04-.08-6.21-.22-9.27,2.58-.63,1.75.84,2.6,1.87,3.33,4.06,5.54,9,9.47,12.55s20.84,14.11,25.43,13.61c8.4-.9-6.12-7.37-7.64-8.41-7.12-4.88-12.39-9.95-14.87-18.62,1-1.06,10.66,8.45,12.06,9.43,6.07,4.25,14.45,8.45,21.93,8.55-3.68-5.2-10.72-6.01-15.93-9.55-1.23-.84-12.23-10.55-11.06-11.43,7.21.61,13.57,5.84,20.52,7.97,4.01-.15-4-3.8-3.52-4.49,8.55-1.05,17.35,5.33,25.58,6.42,40.83,5.39,75.34-29.73,96.24-60.59,9.11-13.45,14.66-31.58,20.16-46.84-1.25-1.72-2.11.42-2.81,1.19-16.55,18.18-26.85,31.12-52.92,36.08-.73.14-6.5,1.21-5.25-1.25,6.32-6.02,14.39-9.59,21.31-14.7,15.63-11.53,29.4-25.21,42.19-39.81,2.63,9.64-.47,21.19-3.24,30.76-19.3,66.49-52.96,109.42-113.59,142.41-17.87,9.72-36.31,16.33-52.15,29.85-12.86,10.99-19.93,22.21-26.03,37.95-7.65-17.21-18.3-29.55-33.02-40.96-20.14-15.61-43.09-23.46-64.4-36.6-24.07-14.84-44.53-34.87-62.05-56.95-19.03-23.98-29.15-52.47-38.04-81.47l-2.08,10.49c.89,10.64,3.05,21.43,4.08,32.01.05.54.89,7.04-.99,6-7.87-11.66-7.27-25.63-9.08-39.01l6.58-34.49c12.28,15.45,26.13,28.33,42.19,39.81,3.26,2.33,20.02,11.99,20.84,13.16.53.76,1.09,2.7-.03,3.03-25.62-3.04-42.14-19.98-58.48-38.01.86,8.36,4.21,18.24,7.22,26.27,18.02,48.04,43.99,81.25,86.45,110.55,19.25,13.29,42.25,19.71,62.24,31.76,12.62,7.61,22.48,17.44,32.07,28.42.2-2.17.17-3.59-.94-5.55-.38-.68-9.23-10.25-10.51-11.49-25.05-24.49-65.35-32.34-92.55-53.94,11.97,3.59,22.39,10.71,34.23,15.26,6.92,2.66,18.53,7.03,25.48,8.53,2.12.46,2.62.63,2.29-1.79-19.58-7.53-39.37-14.62-57.85-24.66-28.03-15.24-49.41-38.26-65.16-65.84.37-1.27,2.19,1.1,2.52,1.48,11.08,12.72,19.8,21.52,33.77,31.23,22.59,15.71,45.68,25.05,72.71,12.26,32.74-15.48,33.94-49.19,36.06-80.94,3.86-57.97,6.18-116.08,9.95-174.05.56-8.66-1.41-17.8,1.97-26.07,4.4-1.18,5.55,3.49,9.03,4.58l1.01-8.01h5.01ZM438.11,575.06c-8,5.38-16.48,11.22-26.46,12.04-22.48,1.85-59.68-15.6-77.87-29.2l-14.67-11.82c13.23,16.13,33.71,27.61,52.81,35.68s37.81,13.51,57.49,2.12c1.24-.72,10.33-7.09,8.68-8.81ZM409.13,578.05c9.78.53,17.95-5.29,24-12.49.94-1.12,2.43-1.63,1.99-3.5l-12.68,9.81-13.3,6.18ZM547.12,570.07c-6.13.08-11.71,2.78-17.6,3.89-3.06.58-8.56-1.1-10.39,2.09l17.38-1.1,10.61-4.88ZM399.12,573.07c-6.87,1.64-13.05.13-19.46.04-1.19-.02-3.75-.84-3.53.94,5.14.8,10.3,1.36,15.53,1.05,1.72-.1,6.55-.38,7.46-2.03ZM446.77,624.41c-1.88-1.96-5.41-3.75-7.14-6.36l-16.51-9.98c-1.04,1.02,3.16,4.78,3.98,5.51,4.12,3.61,9.76,6.22,14.02,9.98,4.65,4.09,7.96,9.32,12.49,13.51,1.01-4.24-4.12-9.78-6.85-12.65Z"/>
  <path class="b" d="M483.13,134.05c-.51-2.51.33-2.51,1.65-3.84,12.01-12.13,23.8-15.07,29.49-34.51,19.28-65.78-63.2-101.45-103.12-50.12-13.69,17.59-12.55,47.33-.43,65.39,5.46,8.14,21.68,22.2,31.39,23.7,4.04.63,9.97-3.28,10.01,4.38-26.39-.05-53.13-25.24-57.76-50.73-10.98-60.57,61.17-101.11,106.78-58.78,32.7,30.35,24.79,88.52-18.01,104.51Z"/>
  <path class="b" d="M440.12,178.06c8.99.57,25.45-3.42,33.61-.18,4.81,1.91,1.42,13.63,1.35,17.64-.24,13.24.66,26.48-1.97,39.54-2.63.22-1.65.11-1.95-1.52-.92-4.98-.34-18.03-1.53-20.48-1.36-2.8-5.86-1.98-8.49-1.98l-2.34,27.7c-1.08-.09-1.94,3.03-2.66,2.27-2.9-3.05-2.72-16.7-8-19.99-2,5.15.17,20.17-2.2,23.81-.32.5-3.82,1.39-4.8,2.19.45-1.29-1.01-2.94-1.01-3.5v-65.5Z"/>
  <path class="b" d="M443.12,125.05c-42.5-12.92-50.48-68.41-11.69-92.19,41.42-25.39,87.18,12.28,76.23,58.23-3,12.6-13.39,25.93-25.81,30.19-3.31,1.14-7.94.27-4.7-2.69,2.19-2.01,8.64-4.54,11.89-7.11,26.65-21.1,18.98-65.66-12.66-78.18-49.34-19.52-89.59,44.4-49.74,78.74,2.23,1.92,19.08,10.37,16.47,13.02Z"/>
  <path class="b" d="M373.12,195.06v19.5c0,2.79-5.15.04-6.46-.02-3.9-.16-8.99.49-13.02.56l-1.51-3.04c.98,6.9-7.09.52-9.39.93-1.75,1.81-1.9,3.29-.17,5.09,4.27,4.44,25.03,6.26,31.55,5.98v3.99c-10.63-2.49-38.55,2.4-39.09-13.49-.57-16.7,26.03-18.42,38.09-19.51Z"/>
  <path class="b" d="M576.78,204.4c8.45,9.65,2.61,20.15-9.26,21.54-7.81.92-16.44.25-24.38,2.11-.13-1.55-.32-3.24,1.66-3.83,6.25-1.85,31.17.57,31.35-8.7-1.42-5.18-5.39-.84-8.47-.41-7.82,1.11-15.83-1.73-23.59-.48-2.38-2.12.03-5.1-.05-7.19-.11-2.74-2.45-10.14.06-11.97,10.27,1.41,25.34.54,32.68,8.92Z"/>
  <path class="b" d="M405.12,188.06l21.99-4c-.45,6.14.45,12.41.45,18.5,0,6.65.03,15.63-.52,22.08-.13,1.54.3,2.32-1.42,3.4l-4.49-3c-1.68-1.98,4.61-2.05,2.85-7.32-1.1-3.3-13.83-1.86-17.23-1.74l-1.63-1.42v-26.5Z"/>
  <path class="b" d="M492.62,215.06c-1.1.31-2.82,2.78-2.41,4.32.68,2.58,9.81,3.94-1.08,7.68,1.86-6.88-3.26-37.06-.56-41.05.74-1.1,1.78-.96,2.91-.9,6.19.33,13.37,2.41,19.65,2.96.4.39-1.01,1.29-1.01,1.49v25.5c-4.69.84-13.44-1.14-17.5,0Z"/>
  <path class="b" d="M530.98,184.2c-.08,10.42.58,20.98.18,31.4-.08,2.13-.92,4.01-1.03,5.97-.47,8.27,2.58,21.04-7,24.49-2.51-21.13-2.05-42.63-1.01-64l8.86,2.14Z"/>
  <path class="b" d="M392.11,245.05c-1.21.89-3.81-2.14-4.44-3.04-4.23-6.11-2.45-23.44-2.51-31.49-.02-2.4-1.13-4.64-1.13-6.96.01-5.81,1.96-12.63,1.25-18.83.77-2.3,6.03-3.56,7.9-2.23l.98,3.02-2.06,59.54Z"/>
  <path class="b" d="M460.12,118.06v46l-7,1c1.11-11.72,1.11-23.28,0-35-5.79,2.59-11.87-8.42-6.51-9,1.06-.11,2.39.74,3.64.48,2.47-.51,5.66-5.13,9.87-3.49Z"/>
  <path class="b" d="M512.12,231.06c.3,2.86-3.16,3.6-5.2,4.29-2.32.79-18.14,3.38-18.8,2.7v-2.99s24-4,24-4Z"/>
  <path class="b" d="M658.11,494.05l-1.94-8.48-1.04-25.51,3.97,16.51c-.2,5.83.81,11.86-1,17.48Z"/>
  <path class="b" d="M428.12,238.05c-.85.71-19.16-2.18-21.68-2.86-1.73-.46-2.78.7-2.31-2.13,6.1.02,13.29.03,19.25,1.23,1.93.39,5.11,1.09,4.73,3.75Z"/>
  <polygon class="b" points="449.12 152.05 450.13 165.06 444.12 165.06 446.19 152.1 449.12 152.05"/>
  <path class="b" d="M419.13,223.07l-.48,1.97c-3.11-1.41-6.71-1.13-10.09-1.96-1.69-.41-2.91.99-2.43-2.02l13,2Z"/>
  <path d="M266.13,247.05l.48-3h-1.47c-1.52,7.37-26.98,20.09-32.02,16-.39-2.56.21-1.56,1.41-2.09,30.57-13.59,42.23-47.4,11.5-69.31-48.76-34.77-111.82,5.43-138.72,49.1-24.36,39.55-29.93,78.48-16.45,123.07,1.8,5.97,5.47,11.41,5.33,17.63-5.51.64-7.1,6.5-12.02,6.56-6.85-16.6-11.5-34.48-13.04-52.47-3.83-44.73,12.18-87.17,42.4-119.58,40.76-43.7,86.56-57.68,143.82-30.64,23.44,11.07,24.69,46.94,8.78,64.73Z"/>
  <path d="M570.13,787.04c3.99-7.53,14.52-8.63,21.33-13.15,7.46-4.95,19.25-16.15,24.65-23.35l7-10.48c2.39,16.04-13.28,31.68-25.67,39.81-7.46,4.89-18.54,8.5-27.31,7.17Z"/>
  <path d="M438.11,575.06c1.65,1.72-7.44,8.09-8.68,8.81-19.68,11.4-37.93,6.14-57.49-2.12s-39.58-19.55-52.81-35.68l14.67,11.82c18.18,13.6,55.39,31.05,77.87,29.2,9.98-.82,18.45-6.65,26.46-12.04Z"/>
  <path d="M446.77,624.41c2.74,2.87,7.86,8.4,6.85,12.65-4.53-4.18-7.85-9.41-12.49-13.51-4.27-3.76-9.9-6.37-14.02-9.98-.83-.72-5.03-4.49-3.98-5.51l16.51,9.98c1.73,2.61,5.26,4.4,7.14,6.36Z"/>
  <path d="M547.12,570.07l-10.61,4.88-17.38,1.1c1.83-3.19,7.33-1.52,10.39-2.09,5.89-1.11,11.47-3.81,17.6-3.89Z"/>
  <path d="M409.13,578.05l13.3-6.18,12.68-9.81c.44,1.88-1.04,2.38-1.99,3.5-6.05,7.2-14.22,13.01-24,12.49Z"/>
  <path d="M399.12,573.07c-.91,1.65-5.73,1.93-7.46,2.03-5.23.31-10.4-.25-15.53-1.05-.22-1.78,2.34-.96,3.53-.94,6.41.09,12.59,1.6,19.46-.04Z"/>
  <path d="M819.25,379.93c3.93-17.66,10.8-32.73,11.92-51.33,4.45-74.13-57.18-168.29-140.27-151.27-19.03,3.9-38.69,17.01-43.54,36.46-.83,3.31-2.91,13.66-3.14,16.87-.13,1.81,2.26,6-.09,6.38-10.6-11.82-7.32-30.09,1.16-42.32,9.15-13.2,37.52-25.47,53.29-26.71,53.44-4.17,92.3,22.77,119.76,66.31,28.15,44.65,36.27,100.99,11.79,149.31l-10.9-3.71Z"/>
  <path d="M848.11,400.05c-.7.51-7.91-5.12-8.56-5.91-1.33-1.65-1.56-2.39-1.49-4.54.2-5.62,7.56-20.57,9.56-27.55,15.61-54.53,3.43-106.05-30.08-150.91-35.14-47.03-98.36-77.14-153.72-44.89-2.62,1.53-7.38,6.11-9.21,6.79-4.13,1.54,1.31-6.99,2.11-7.89,12.61-14.27,44.36-21.01,62.58-19.89,65.11,4.01,110.22,51.98,134,109.12,13.69,32.89,16.42,58.59,10.53,93.88-2.91,17.4-7.68,36.14-15.72,51.79Z"/>
  <path d="M679.12,257.05c-7.47,2.67-17.65-.92-22.99-6.5-.9-.95-9.37-13.36-9.63-14.17-1.21-3.87.53-8.6,1.63-12.32,6.89,8.68,10.95,19.5,20.07,26.41,3.63,2.75,7.74,3.68,10.91,6.58Z"/>
  <path d="M540.56,347.64c.41.44,1.56.45,1.51.88-.1.81-1.43,2.16-1.42,3.38.03,4.04.81,8.33.83,12.4,0,1.31.89,2.2-1.34,2.75.81-4.53-1.97-6.93-2.11-11.5-.03-.88.41-8.11.57-8.51,1.06-2.61,1.49.08,1.96.58Z"/>
</svg>